HIERARCHY
ROOT Hips
{
	OFFSET 0.000000 0.000000 0.000000
	CHANNELS 6 Xposition Yposition Zposition Zrotation Yrotation Xrotation 
	JOINT LowerBack
	{
		OFFSET 0.000000 0.000000 0.000000
		CHANNELS 3 Zrotation Yrotation Xrotation
		JOINT Spine
		{
			OFFSET 0.028270 2.035590 -0.193380
			CHANNELS 3 Zrotation Yrotation Xrotation
			JOINT Spine1
			{
				OFFSET 0.056720 2.048850 -0.042750
				CHANNELS 3 Zrotation Yrotation Xrotation
				JOINT Neck
				{
					OFFSET 0.000000 0.000000 0.000000
					CHANNELS 3 Zrotation Yrotation Xrotation
					JOINT Neck1
					{
						OFFSET -0.054170 1.746240 0.172020
						CHANNELS 3 Zrotation Yrotation Xrotation
						JOINT Head
						{
							OFFSET 0.104070 1.761360 -0.123970
							CHANNELS 3 Zrotation Yrotation Xrotation
							End Site
							{
								OFFSET 0.000000 0.000000 0.000000
							}
						}
					}
				}
				JOINT LeftShoulder
				{
					OFFSET 0.000000 0.000000 0.000000
					CHANNELS 3 Zrotation Yrotation Xrotation
					JOINT LeftArm
					{
						OFFSET 3.362410 1.200890 -0.311210
						CHANNELS 3 Zrotation Yrotation Xrotation
						JOINT LeftForeArm
						{
							OFFSET 4.983000 -0.000000 -0.000000
							CHANNELS 3 Zrotation Yrotation Xrotation
							JOINT LeftHand
							{
								OFFSET 3.483560 -0.000000 -0.000000
								CHANNELS 3 Zrotation Yrotation Xrotation
								JOINT LeftFingerBase
								{
									OFFSET 0.000000 0.000000 0.000000
									CHANNELS 3 Zrotation Yrotation Xrotation
									JOINT LeftHandIndex1
									{
										OFFSET 0.715260 -0.000000 -0.000000
										CHANNELS 3 Zrotation Yrotation Xrotation
										End Site
										{
											OFFSET 0.000000 0.000000 0.000000
										}
									}
								}
								JOINT LThumb
								{
									OFFSET 0.000000 0.000000 0.000000
									CHANNELS 3 Zrotation Yrotation Xrotation
									End Site
									{
										OFFSET 0.000000 0.000000 0.000000
									}
								}
							}
						}
					}
				}
				JOINT RightShoulder
				{
					OFFSET 0.000000 0.000000 0.000000
					CHANNELS 3 Zrotation Yrotation Xrotation
					JOINT RightArm
					{
						OFFSET -3.136600 1.374050 -0.404650
						CHANNELS 3 Zrotation Yrotation Xrotation
						JOINT RightForeArm
						{
							OFFSET -5.241900 -0.000000 -0.000000
							CHANNELS 3 Zrotation Yrotation Xrotation
							JOINT RightHand
							{
								OFFSET -3.444170 -0.000000 -0.000000
								CHANNELS 3 Zrotation Yrotation Xrotation
								JOINT RightFingerBase
								{
									OFFSET 0.000000 0.000000 0.000000
									CHANNELS 3 Zrotation Yrotation Xrotation
									JOINT RightHandIndex1
									{
										OFFSET -0.622530 -0.000000 -0.000000
										CHANNELS 3 Zrotation Yrotation Xrotation
										End Site
										{
											OFFSET 0.000000 0.000000 0.000000
										}
									}
								}
								JOINT RThumb
								{
									OFFSET 0.000000 0.000000 0.000000
									CHANNELS 3 Zrotation Yrotation Xrotation
									End Site
									{
										OFFSET 0.000000 0.000000 0.000000
									}
								}
							}
						}
					}
				}
			}
		}
	}
}
}
MOTION
Frames: 7
Frame Time: 0.008333
2.846499 17.340489 -1.635983 151.470210 -82.334285 -142.357918 -0.634235 -2.481897 -5.081702 -0.514860 -2.631250 -3.371592 -5.469089 -2.712740 2.265314 9.731567 -15.467594 -10.622845 -2.397180 -0.157765 -0.718881 0.000000 0.000000 0.000000 -1.767943 14.042835 0.783147 -78.637511 16.834355 8.648221 -3.047730 -29.926102 0.003464 1.662718 -1.026880 -0.014639 -0.085614 -0.041657 -0.000000 0.000000 0.000000 0.000000 0.000000 0.000000 0.000000 13.329218 -12.539389 0.716477 75.409266 -6.733292 -9.723151 4.219460 17.661543 0.014141 1.174329 5.286431 0.049436 0.128503 -0.060460 -0.000000 0.000000 0.000000 0.000000 0.000000 0.000000 0.000000 
2.873898 17.346592 -1.662814 148.625935 -82.264903 -139.852249 -0.894357 -2.527280 -4.832252 -0.560823 -2.644942 -3.321375 -5.439856 -2.724773 2.241584 9.651908 -15.574621 -10.616526 -2.393972 -0.157278 -0.719252 0.000000 0.000000 0.000000 -1.641332 14.016997 0.773566 -78.935650 17.331493 9.216198 -3.018901 -30.459796 0.003515 1.540540 -1.132511 -0.015143 -0.083797 -0.042588 -0.000000 0.000000 0.000000 0.000000 0.000000 0.000000 0.000000 13.327118 -12.657646 0.699281 75.493586 -7.128876 -8.701781 4.210012 18.183761 0.014135 1.297364 5.267785 0.054936 0.128035 -0.058194 -0.000000 0.000000 0.000000 0.000000 0.000000 0.000000 0.000000 
2.903226 17.353123 -1.688087 145.738078 -82.184559 -137.329209 -1.159763 -2.565681 -4.542499 -0.609712 -2.650393 -3.263983 -5.412890 -2.727943 2.217144 9.575682 -15.678332 -10.616999 -2.391828 -0.156712 -0.722147 0.000000 0.000000 0.000000 -1.529655 14.014143 0.766461 -79.214422 17.790457 9.736578 -2.992647 -30.990323 0.003473 1.383295 -1.205720 -0.014548 -0.081744 -0.043498 -0.000000 0.000000 0.000000 0.000000 0.000000 0.000000 0.000000 13.335444 -12.764473 0.682138 75.571323 -7.511353 -7.690633 4.196092 18.736359 0.014146 1.417917 5.266166 0.060537 0.127389 -0.056203 -0.000000 0.000000 0.000000 0.000000 0.000000 0.000000 0.000000 
2.934413 17.360047 -1.711832 142.860811 -82.087107 -134.836754 -1.429099 -2.595254 -4.218194 -0.661372 -2.646264 -3.200816 -5.388896 -2.720942 2.191275 9.503307 -15.771307 -10.621363 -2.390686 -0.156111 -0.726719 0.000000 0.000000 0.000000 -1.438068 14.033218 0.761374 -79.466762 18.216812 10.213212 -2.968444 -31.521313 0.003339 1.195987 -1.241780 -0.012954 -0.079451 -0.044461 -0.000000 0.000000 0.000000 0.000000 0.000000 0.000000 0.000000 13.350594 -12.852272 0.665575 75.649536 -7.878843 -6.731300 4.178966 19.298009 0.014193 1.539290 5.286482 0.066438 0.126566 -0.054574 -0.000000 0.000000 0.000000 0.000000 0.000000 0.000000 0.000000 
2.967300 17.367219 -1.734065 140.093421 -81.968659 -132.467047 -1.698191 -2.612459 -3.864891 -0.714948 -2.629683 -3.132420 -5.367549 -2.700885 2.167068 9.438618 -15.860565 -10.632501 -2.389530 -0.155354 -0.733706 0.000000 0.000000 0.000000 -1.364009 14.089297 0.757340 -79.689000 18.595287 10.666523 -2.946139 -32.039742 0.003119 0.984255 -1.241109 -0.010765 -0.076981 -0.045494 -0.000000 0.000000 0.000000 0.000000 0.000000 0.000000 0.000000 13.375013 -12.926557 0.648791 75.719775 -8.229130 -5.766483 4.156752 19.880348 0.014225 1.635431 5.313001 0.071340 0.125712 -0.053145 -0.000000 0.000000 0.000000 0.000000 0.000000 0.000000 0.000000 
3.001644 17.374568 -1.754944 137.450297 -81.828837 -130.227089 -1.967655 -2.618284 -3.489854 -0.770366 -2.601950 -3.060791 -5.349449 -2.669181 2.142128 9.379260 -15.932681 -10.644698 -2.388494 -0.154544 -0.741453 0.000000 0.000000 0.000000 -1.313335 14.170160 0.754188 -79.874602 18.942070 11.098584 -2.924783 -32.556446 0.002828 0.757093 -1.205854 -0.008077 -0.074339 -0.046643 -0.000000 0.000000 0.000000 0.000000 0.000000 0.000000 0.000000 13.399882 -12.975918 0.633186 75.797805 -8.557904 -4.881328 4.132810 20.441695 0.014293 1.726572 5.359248 0.076241 0.124762 -0.052089 -0.000000 0.000000 0.000000 0.000000 0.000000 0.000000 0.000000 
3.037352 17.381949 -1.774532 134.974693 -81.669777 -128.155651 -2.235738 -2.612186 -3.097819 -0.827089 -2.562892 -2.986814 -5.334492 -2.625689 2.116880 9.326237 -15.986950 -10.657179 -2.387253 -0.153670 -0.749683 0.000000 0.000000 0.000000 -1.283978 14.276065 0.751423 -80.021780 19.254577 11.522319 -2.903918 -33.065980 0.002487 0.522949 -1.142807 -0.005389 -0.071578 -0.047899 -0.000000 0.000000 0.000000 0.000000 0.000000 0.000000 0.000000 13.423956 -13.000070 0.618859 75.884209 -8.864286 -4.065111 4.107141 20.978420 0.014374 1.805373 5.416401 0.080843 0.123775 -0.051327 -0.000000 0.000000 0.000000 0.000000 0.000000 0.000000 0.000000 
